<?xml version="1.0" standalone="no"?>
<!DOCTYPE svg PUBLIC "-//W3C//DTD SVG 20010904//EN"
 "http://www.w3.org/TR/2001/REC-SVG-20010904/DTD/svg10.dtd">
<svg version="1.0" xmlns="http://www.w3.org/2000/svg"
 width="1024.000000pt" height="1024.000000pt" viewBox="0 0 1024.000000 1024.000000"
 preserveAspectRatio="xMidYMid meet">

<g transform="translate(0.000000,1024.000000) scale(0.100000,-0.100000)"
fill="#000000" stroke="none">
<path d="M5025 8391 c-224 -28 -427 -194 -501 -413 -62 -182 -52 -337 32 -508
84 -170 229 -286 419 -335 167 -43 364 5 512 124 144 116 233 309 233 505 0
105 -15 167 -66 274 -77 159 -203 269 -374 325 -87 29 -170 38 -255 28z"/>
<path d="M3423 7056 c-67 -22 -106 -51 -201 -150 -104 -109 -155 -174 -245
-311 -290 -444 -451 -989 -433 -1470 9 -250 41 -433 131 -748 94 -333 269
-635 536 -927 153 -166 251 -256 407 -368 207 -151 399 -250 657 -342 469
-166 1019 -190 1503 -64 243 63 487 162 667 271 211 128 494 369 646 552 148
177 318 447 391 621 100 240 185 571 209 816 19 190 0 527 -42 744 -46 238
-211 636 -365 880 -136 215 -330 438 -419 481 -43 21 -64 24 -155 24 -91 0
-111 -3 -150 -24 -74 -38 -125 -86 -157 -148 -84 -161 -65 -322 55 -461 146
-169 229 -291 297 -436 157 -333 213 -627 187 -972 -26 -343 -112 -600 -289
-869 -250 -378 -562 -618 -966 -740 -230 -70 -297 -80 -557 -80 -209 0 -247 3
-345 24 -259 55 -583 194 -756 325 -370 280 -621 673 -721 1128 -20 91 -22
132 -23 343 0 193 4 258 18 330 24 118 96 331 152 451 73 157 212 359 340 494
79 83 99 137 99 270 1 88 -2 101 -32 163 -39 78 -91 127 -181 170 -76 36 -188
46 -258 23z"/>
<path d="M5005 6709 c-32 -5 -92 -24 -132 -43 -121 -58 -202 -149 -247 -279
-21 -61 -21 -71 -24 -982 -2 -625 1 -942 8 -990 17 -107 66 -199 147 -276 171
-160 388 -194 601 -92 130 61 217 170 260 325 16 58 17 140 17 998 0 877 -1
939 -18 995 -48 156 -163 275 -315 324 -75 24 -213 34 -297 20z"/>
</g>
</svg>
